<svg class="svg-icon" style="width: 1em; height: 1em;vertical-align: middle;fill: currentColor;overflow: hidden;" viewBox="0 0 1024 1024" version="1.1" xmlns="http://www.w3.org/2000/svg"><path d="M441.9 690.6l-110.9-64 229.2-397.1 110.9 64-229.2 397.1z m-89.1-69.9l83.2 48 213.2-369.4-83.2-48-213.2 369.4z" fill="" /><path d="M345.3 846l-100.7-58.2L344 615.6l100.7 58.1L345.3 846z m-78.8-64l73 42.1 83.4-144.5-73-42.1L266.5 782zM701.7 193.4L631.6 153l24.6-42.7c7.1-12.3 22.8-16.5 35.1-9.4l25.5 14.8c12.3 7.1 16.5 22.8 9.4 35.1l-24.5 42.6z m-48.2-46.3l42.3 24.4 16.7-28.8c2.7-4.6 1.1-10.6-3.5-13.3l-25.5-14.8c-4.6-2.7-10.6-1.1-13.3 3.6l-16.7 28.9z m65.9-0.4z" fill="" /><path d="M663.1 307.4l-110.9-64 54.1-93.8c3.4-5.8 8.6-10.1 14.8-12.1 6.5-2.1 13.2-1.4 18.9 1.9l69.3 40c5.7 3.3 9.6 8.7 11 15.4 1.4 6.4 0.3 13.1-3.1 18.9l-54.1 93.7z m-89-69.9l83.2 48 46.1-79.9c1.4-2.4 1.8-5 1.3-7.5-0.5-2.2-1.7-3.9-3.4-4.9l-69.3-40c-1.7-1-3.8-1.2-5.9-0.5-2.4 0.8-4.5 2.5-5.8 4.9l-46.2 79.9zM237 925.3c-1.4 0-2.7-0.3-4-1.1-3.8-2.2-5.1-7.1-2.9-10.9l10.3-17.9c2.2-3.8 7.1-5.1 10.9-2.9 3.8 2.2 5.1 7.1 2.9 10.9l-10.3 17.9c-1.4 2.6-4.1 4-6.9 4z" fill="" /><path d="M423.4 426.6c-2.8 0-5.5-1.5-7-4.1-2.1-3.9-0.8-8.7 3.1-10.9 0.1-0.1 14-7.9 22.8-17.9 16.1-18.4 24-48.9 31.5-78.5 5.6-21.8 10.9-42.4 19.4-57.2 19.8-34.4 103.5-92.9 107-95.4 3.6-2.5 8.6-1.6 11.1 2s1.6 8.6-2 11.1c-0.8 0.6-84.3 59-102.3 90.3-7.4 12.8-12.4 32.4-17.7 53.2-8 31.4-16.3 63.8-35 85.1-10.7 12.2-26.4 21-27.1 21.4-1.2 0.6-2.5 0.9-3.8 0.9zM245 911.2c-1.4 0-2.8-0.4-4-1.1-2.8-1.6-4.4-4.8-3.9-8l15.5-115.4c0.4-2.6 2-4.9 4.4-6.1 2.4-1.2 5.2-1.1 7.5 0.3l76.6 44.3c2.3 1.3 3.8 3.7 4 6.4 0.2 2.7-1 5.2-3.1 6.9l-92.2 71.1c-1.3 1-3 1.6-4.8 1.6z m21.9-110.5L255.6 885l67.3-51.9-56-32.4z" fill="" /></svg>